<svg version="1.1" xmlns="http://www.w3.org/2000/svg" xmlns:xlink="http://www.w3.org/1999/xlink" width="16" height="16" viewBox="0,0,255.99599,255.99599"><g fill="#ffffff" fill-rule="nonzero" stroke="none" stroke-width="1" stroke-linecap="butt" stroke-linejoin="miter" stroke-miterlimit="10" stroke-dasharray="" stroke-dashoffset="0" font-family="none" font-weight="none" font-size="none" text-anchor="none" style="mix-blend-mode: normal"><g transform="translate(-0.00201,-0.00201) scale(16,16)"><path d="M8,1c1.38071,0 2.5,1.11929 2.5,2.5v0.5h-5v-0.5c0,-1.38071 1.11929,-2.5 2.5,-2.5M11.5,4v-0.5c0,-1.933 -1.567,-3.5 -3.5,-3.5c-1.933,0 -3.5,1.567 -3.5,3.5v0.5h-3.5v10c0,1.10457 0.89543,2 2,2h10c1.10457,0 2,-0.89543 2,-2v-10zM2,5h12v9c0,0.55228 -0.44772,1 -1,1h-10c-0.55228,0 -1,-0.44772 -1,-1z"></path></g></g></svg>